<svg width="759" height="907" viewBox="0 0 759 907" fill="none" xmlns="http://www.w3.org/2000/svg">
<path d="M719.538 339.933C782.972 524.226 776.175 741.753 653.085 841.453C529.239 941.153 289.1 923.781 148.641 811.997C8.18161 700.212 -31.8417 493.259 24.795 317.274C82.1869 141.288 236.239 -2.9746 379.718 0.0466056C523.198 3.82312 656.861 155.639 719.538 339.933Z" fill="#F0EEE8"/>
<path d="M619 533.084C618.996 515.198 614.995 497.539 607.289 481.398C599.583 465.257 588.368 451.042 574.462 439.794C560.557 428.545 544.313 420.546 526.918 416.382C509.524 412.218 491.419 411.994 473.927 415.727C490.114 398.717 500.955 377.333 505.108 354.222C509.261 331.111 506.542 307.29 497.288 285.709C488.035 264.129 472.653 245.737 453.049 232.813C433.445 219.889 410.48 213 387 213C363.519 213 340.554 219.889 320.95 232.813C301.346 245.737 285.964 264.129 276.711 285.709C267.457 307.29 264.738 331.111 268.891 354.222C273.044 377.333 283.885 398.717 300.073 415.727C274.174 410.18 247.167 413.362 223.266 424.775C199.365 436.187 179.913 455.19 167.945 478.818C155.977 502.445 152.165 529.37 157.105 555.391C162.044 581.413 175.457 605.068 195.251 622.667C167.562 648.574 170.751 684.251 170.915 685.88C171.113 687.853 172.037 689.682 173.508 691.013C174.979 692.343 176.891 693.08 178.875 693.08H234.875C235.925 693.08 236.965 692.873 237.936 692.471C238.907 692.069 239.789 691.48 240.532 690.737L246.188 685.084H303.688L309.344 690.741C310.844 692.241 312.878 693.083 315 693.084H371C372.983 693.084 374.895 692.347 376.366 691.017C377.837 689.686 378.761 687.857 378.96 685.884C379.121 684.275 382.304 648.665 354.66 622.748C368.994 610.012 380.081 594.039 387 576.157C393.892 593.971 404.922 609.891 419.178 622.603C391.415 648.511 394.609 684.245 394.772 685.88C394.97 687.853 395.894 689.683 397.365 691.013C398.836 692.343 400.749 693.08 402.733 693.08H458.733C459.783 693.08 460.823 692.873 461.794 692.471C462.765 692.069 463.647 691.48 464.39 690.737L470.046 685.084H527.546L533.203 690.741C534.702 692.24 536.736 693.083 538.858 693.084H594.858C596.841 693.084 598.753 692.347 600.224 691.017C601.695 689.686 602.619 687.857 602.818 685.884C602.979 684.276 606.156 648.725 578.589 622.813C591.297 611.573 601.471 597.761 608.438 582.292C615.405 566.822 619.005 550.049 619 533.084ZM387 261.084C403.451 261.071 419.407 266.721 432.185 277.084H341.815C354.592 266.721 370.548 261.071 387 261.084ZM327.167 293.084H446.833C453.257 302.651 457.275 313.629 458.545 325.084H315.455C316.724 313.629 320.742 302.651 327.167 293.084ZM458.545 341.084C457.275 352.538 453.257 363.516 446.833 373.084H327.167C320.742 363.516 316.724 352.538 315.455 341.084H458.545ZM432.185 389.084C419.4 399.436 403.449 405.084 387 405.084C370.55 405.084 354.599 399.436 341.815 389.084H432.185ZM395 420.717C412.757 419.108 429.6 412.119 443.281 400.684L454.628 412.031C437.897 426.425 417.005 435.098 395 436.784V420.717ZM465.941 400.712L454.6 389.365C466.034 375.684 473.023 358.841 474.633 341.084H490.7C489.012 363.09 480.338 383.982 465.941 400.712ZM474.633 325.084C473.023 307.327 466.034 290.483 454.6 276.803L465.947 265.456C480.341 282.186 489.014 303.078 490.7 325.084H474.633ZM443.281 265.489C429.601 254.052 412.757 247.061 395 245.451V229.389C417.005 231.074 437.897 239.747 454.628 254.142L443.281 265.489ZM379 245.451C361.242 247.061 344.398 254.052 330.719 265.489L319.372 254.142C336.102 239.747 356.994 231.074 379 229.389V245.451ZM319.405 276.803C307.968 290.482 300.978 307.326 299.367 325.084H283.305C284.99 303.078 293.663 282.186 308.058 265.456L319.405 276.803ZM299.367 341.084C300.978 358.841 307.968 375.685 319.405 389.365L308.058 400.712C293.663 383.981 284.99 363.09 283.305 341.084H299.367ZM330.719 400.684C344.399 412.119 361.242 419.108 379 420.717V436.784C356.994 435.098 336.102 426.425 319.372 412.031L330.719 400.684ZM387 453.084C395.427 453.085 403.831 452.199 412.073 450.441C401.202 461.86 392.683 475.305 387 490.011C381.316 475.305 372.797 461.86 361.927 450.441C370.168 452.199 378.572 453.085 387 453.084ZM586.633 525.084C585.023 507.327 578.034 490.483 566.6 476.803L577.947 465.456C592.341 482.186 601.014 503.078 602.7 525.084H586.633ZM499 605.084C482.548 605.096 466.592 599.447 453.815 589.084H544.185C531.407 599.447 515.451 605.096 499 605.084ZM558.833 573.084H439.167C432.742 563.516 428.724 552.538 427.454 541.084H570.545C569.275 552.538 565.257 563.516 558.833 573.084ZM395.305 525.084C396.99 503.078 405.663 482.186 420.058 465.456L431.4 476.803C419.965 490.483 412.976 507.327 411.367 525.084H395.305ZM499 461.084C515.451 461.071 531.407 466.721 544.185 477.084H453.815C466.592 466.721 482.548 461.071 499 461.084ZM439.167 493.084H558.833C565.257 502.651 569.275 513.629 570.545 525.084H427.454C428.724 513.629 432.742 502.651 439.167 493.084ZM555.281 465.484C541.6 454.048 524.757 447.06 507 445.451V429.389C529.005 431.074 549.897 439.747 566.628 454.142L555.281 465.484ZM491 445.451C473.242 447.06 456.399 454.048 442.719 465.484L431.372 454.137C448.102 439.744 468.994 431.073 491 429.389V445.451ZM362.633 525.084C361.023 507.327 354.034 490.483 342.6 476.803L353.947 465.456C368.341 482.186 377.014 503.078 378.7 525.084H362.633ZM275 605.084C258.548 605.096 242.592 599.447 229.815 589.084H320.185C307.407 599.447 291.451 605.096 275 605.084ZM334.833 573.084H215.167C208.742 563.516 204.724 552.538 203.455 541.084H346.545C345.275 552.538 341.257 563.516 334.833 573.084ZM275 461.084C291.451 461.071 307.407 466.721 320.185 477.084H229.815C242.592 466.721 258.548 461.071 275 461.084ZM215.167 493.084H334.833C341.257 502.651 345.275 513.629 346.545 525.084H203.455C204.724 513.629 208.742 502.651 215.167 493.084ZM331.281 465.484C317.6 454.048 300.757 447.06 283 445.451V429.389C305.005 431.074 325.897 439.747 342.628 454.142L331.281 465.484ZM267 445.451C249.242 447.06 232.399 454.048 218.719 465.484L207.372 454.142C224.102 439.747 244.994 431.074 267 429.389V445.451ZM207.405 476.803C195.968 490.482 188.977 507.326 187.367 525.084H171.305C172.99 503.078 181.663 482.186 196.058 465.456L207.405 476.803ZM187.367 541.084C188.977 558.841 195.968 575.685 207.405 589.365L196.058 600.712C181.663 583.981 172.99 563.09 171.305 541.084H187.367ZM207.372 612.026L218.719 600.684C232.399 612.119 249.242 619.108 267 620.717V636.784C244.993 635.096 224.101 626.422 207.372 612.026ZM283 620.717C300.757 619.108 317.6 612.119 331.281 600.684L342.628 612.031C325.897 626.425 305.005 635.098 283 636.784V620.717ZM342.6 589.365C354.034 575.684 361.023 558.841 362.633 541.084H378.7C377.014 563.09 368.341 583.981 353.947 600.712L342.6 589.365ZM411.367 541.084C412.976 558.841 419.965 575.684 431.4 589.365L420.053 600.712C405.66 583.981 396.989 563.089 395.305 541.084H411.367ZM431.367 612.026L442.719 600.684C456.399 612.119 473.242 619.108 491 620.717V636.784C468.993 635.096 448.101 626.422 431.372 612.026H431.367ZM507 620.717C524.757 619.108 541.6 612.119 555.281 600.684L566.628 612.031C549.897 626.425 529.005 635.098 507 636.784V620.717ZM566.6 589.365C578.034 575.684 585.023 558.841 586.633 541.084H602.7C601.014 563.09 592.341 583.981 577.947 600.712L566.6 589.365ZM363.046 677.084H318.313L312.657 671.427C311.914 670.684 311.032 670.095 310.061 669.693C309.09 669.29 308.05 669.084 307 669.084H242.875C241.824 669.084 240.784 669.29 239.813 669.693C238.842 670.095 237.96 670.684 237.218 671.427L231.562 677.084H186.83C187.459 666.713 191.08 647.321 208.093 632.654C227.85 645.96 251.127 653.074 274.947 653.084C298.768 653.094 322.051 646.001 341.82 632.711C358.8 647.377 362.415 666.741 363.046 677.084ZM586.9 677.084H542.171L536.515 671.427C535.772 670.684 534.89 670.095 533.919 669.693C532.948 669.29 531.908 669.084 530.858 669.084H466.733C465.682 669.084 464.642 669.29 463.671 669.693C462.7 670.095 461.818 670.684 461.076 671.427L455.419 677.084H410.719C411.389 666.711 415.059 647.218 432.019 632.603C451.765 645.924 475.036 653.055 498.856 653.084C522.676 653.112 545.964 646.038 565.743 632.764C582.671 647.423 586.274 666.753 586.9 677.084Z" fill="#BC6E44"/>
</svg>
