<svg width="843" height="907" viewBox="0 0 843 907" fill="none" xmlns="http://www.w3.org/2000/svg">
<path d="M590.488 260.079C696.316 371.264 830.747 467.372 842.188 585.466C853.629 703.561 742.795 843.012 599.783 888.868C457.487 935.352 284.443 886.983 187.195 805.951C89.9477 724.29 69.2111 608.708 40.6088 495.64C12.0065 383.199 -24.4614 272.643 22.7324 172.765C69.9261 72.8878 200.782 -16.3109 304.465 2.53388C408.148 21.3787 485.374 148.267 590.488 260.079Z" fill="#F0EEE8"/>
<path d="M549 582C544.253 582 539.613 583.408 535.666 586.045C531.72 588.682 528.643 592.43 526.827 596.816C525.01 601.201 524.535 606.027 525.461 610.682C526.387 615.338 528.673 619.614 532.029 622.971C535.386 626.327 539.662 628.613 544.318 629.539C548.973 630.465 553.799 629.99 558.184 628.173C562.57 626.357 566.318 623.28 568.955 619.334C571.592 615.387 573 610.747 573 606C572.993 599.637 570.462 593.537 565.963 589.037C561.463 584.538 555.363 582.007 549 582ZM549 614C547.418 614 545.871 613.531 544.555 612.652C543.24 611.773 542.214 610.523 541.609 609.061C541.003 607.6 540.845 605.991 541.154 604.439C541.462 602.887 542.224 601.462 543.343 600.343C544.462 599.224 545.887 598.462 547.439 598.154C548.991 597.845 550.6 598.003 552.061 598.609C553.523 599.214 554.773 600.24 555.652 601.555C556.531 602.871 557 604.418 557 606C556.998 608.121 556.154 610.154 554.654 611.654C553.154 613.154 551.121 613.998 549 614Z" fill="#BC6E44"/>
<path d="M317 574C321.418 574 325 570.418 325 566C325 561.582 321.418 558 317 558C312.582 558 309 561.582 309 566C309 570.418 312.582 574 317 574Z" fill="#BC6E44"/>
<path d="M205 656.216V686C205 688.122 205.843 690.157 207.343 691.657C208.843 693.157 210.878 694 213 694H621C631.605 693.988 641.772 689.77 649.271 682.271C656.77 674.772 660.988 664.605 661 654C661 651.878 660.157 649.843 658.657 648.343C657.157 646.843 655.122 646 653 646H629V614C629 611.878 628.157 609.843 626.657 608.343C625.157 606.843 623.122 606 621 606C616.757 606 612.687 604.314 609.686 601.314C606.686 598.313 605 594.243 605 590C605 585.757 606.686 581.687 609.686 578.686C612.687 575.686 616.757 574 621 574C623.122 574 625.157 573.157 626.657 571.657C628.157 570.157 629 568.122 629 566V510C629 507.878 628.157 505.843 626.657 504.343C625.157 502.843 623.122 502 621 502H532.642C532.873 499.4 533 496.733 533 494C533 445.111 509.491 381.86 508.491 379.191C507.919 377.666 506.896 376.352 505.557 375.424C504.218 374.497 502.629 374 501 374H448.659C438.763 362.121 426.652 352.278 413 345.02V278C415.122 278 417.157 277.157 418.657 275.657C420.157 274.157 421 272.122 421 270V222C421 219.878 420.157 217.843 418.657 216.343C417.157 214.843 415.122 214 413 214H349C346.878 214 344.843 214.843 343.343 216.343C341.843 217.843 341 219.878 341 222V270C341 272.122 341.843 274.157 343.343 275.657C344.843 277.157 346.878 278 349 278V345.023C339.782 349.953 331.232 356.04 323.557 363.138C303.566 381.7 293 404.821 293 430V512.8C292.554 512.318 292.1 511.84 291.627 511.371C276.032 495.771 253.193 493.238 240.716 505.714C230.77 515.659 230.375 532.186 238.516 546.383C229.334 548.156 220.911 552.687 214.37 559.371C205.629 568.111 200.742 579.439 200.743 589.998H189C186.878 589.998 184.843 590.841 183.343 592.341C181.843 593.841 181 595.876 181 597.998C181 619.615 189.492 640.128 205 656.216ZM221 678V662H333V678H221ZM349 656.217C356.387 648.623 362.315 639.737 366.49 630H429C431.122 630 433.157 629.157 434.657 627.657C436.157 626.157 437 624.122 437 622V568.6C442.114 570.846 447.489 572.441 453 573.347V644.028C440.07 668.228 416.53 676.563 411.874 678.004H349V656.217ZM285.649 590H269.7C272.552 583.735 273.675 576.821 272.953 569.976C274.29 570.128 275.634 570.205 276.98 570.207C280.325 570.224 283.65 569.706 286.831 568.671C285.609 573.008 284.992 577.494 285 582C285.003 584.68 285.22 587.355 285.649 590ZM301.949 590C301.316 587.38 300.998 584.695 301 582C301 568.991 308.327 558 317 558C325.673 558 333 568.991 333 582C333.002 584.695 332.684 587.38 332.051 590H301.949ZM341 555.585V486H389.2C389.071 488.7 389 491.372 389 494C389 523.824 403.272 545.93 421 559.258V614H371.423C372.472 608.731 373.001 603.372 373 598C373 595.878 372.157 593.843 370.657 592.343C369.157 590.843 367.122 590 365 590H348.351C348.78 587.355 348.997 584.68 349 582C349.104 572.583 346.311 563.362 341 555.585ZM517 494C517 518.189 505.892 533.52 496.574 542.122C483.877 553.841 469.475 558 461 558C452.525 558 438.123 553.841 425.426 542.122C416.108 533.52 405 518.189 405 494C405.048 486.543 405.551 479.096 406.508 471.7L416.808 476.853C423.118 479.998 430.146 481.423 437.182 480.984C444.219 480.545 451.015 478.258 456.885 474.353L477.122 460.862C480.015 458.93 483.293 457.652 486.73 457.115C490.166 456.579 493.678 456.796 497.022 457.754L514.198 462.66C515.943 473.018 516.88 483.496 517 494ZM476.965 678H445.035C451.084 673.203 456.455 667.608 461 661.368V662H461.476C465.919 667.986 471.126 673.365 476.965 678ZM469 574C473.243 574 477.313 575.686 480.314 578.686C483.314 581.687 485 585.757 485 590C485 594.243 483.314 598.313 480.314 601.314C477.313 604.314 473.243 606 469 606V574ZM621 678H510.131C500.044 674.647 490.782 669.194 482.956 662H643.629C641.969 666.676 638.903 670.724 634.852 673.589C630.8 676.453 625.962 677.994 621 678ZM613 518V559.012C606.131 560.786 600.045 564.793 595.701 570.402C591.356 576.011 588.999 582.905 588.999 590C588.999 597.095 591.356 603.989 595.701 609.598C600.045 615.207 606.131 619.214 613 620.988V646H470.1C469.725 645.353 469.359 644.694 469 644.024V622C475.491 622.004 481.83 620.033 487.174 616.349C492.517 612.664 496.614 607.441 498.918 601.372C501.222 595.304 501.625 588.678 500.073 582.375C498.522 576.073 495.089 570.391 490.231 566.086C500.954 560.416 510.262 552.404 517.465 542.644C522.597 549.202 529.647 553.996 537.633 556.357C545.619 558.719 554.142 558.53 562.016 555.818C569.889 553.105 576.72 548.004 581.557 541.225C586.394 534.446 588.996 526.328 589 518H613ZM573 518C573 523.606 571.037 529.036 567.452 533.346C563.867 537.656 558.886 540.574 553.373 541.595C547.86 542.615 542.164 541.673 537.274 538.932C532.383 536.192 528.607 531.825 526.6 526.59C527.781 523.788 528.799 520.92 529.65 518H573ZM510.9 445.077L501.43 442.377C495.856 440.78 490.001 440.417 484.272 441.311C478.544 442.205 473.078 444.336 468.256 447.556L448.019 461.048C444.497 463.39 440.419 464.762 436.197 465.025C431.976 465.289 427.759 464.434 423.973 462.548L409.1 455.106C414.253 427.292 422.877 400.865 426.642 390H495.358C501.599 408.043 506.789 426.433 510.9 445.077ZM357 230H405V262C402.878 262 400.843 262.843 399.343 264.343C397.843 265.843 397 267.878 397 270V310H365V270C365 267.878 364.157 265.843 362.657 264.343C361.157 262.843 359.122 262 357 262V230ZM397 342H365V326H397V342ZM334.076 375.206C341.447 368.322 349.765 362.528 358.777 358H403.232C411.718 362.248 419.586 367.631 426.62 374H421C419.371 374 417.782 374.497 416.443 375.424C415.104 376.352 414.081 377.666 413.509 379.191C412.667 381.437 395.88 426.604 390.586 470H333C330.878 470 328.843 470.843 327.343 472.343C325.843 473.843 325 475.878 325 478V543.266C319.8 541.578 314.2 541.578 309 543.266V430C309 409.25 317.437 390.815 334.076 375.206ZM251.3 517.889C250.086 519.508 249.53 521.527 249.745 523.539C249.96 525.551 250.93 527.407 252.458 528.733C253.987 530.058 255.961 530.756 257.984 530.684C260.006 530.612 261.926 529.777 263.357 528.346C264.788 526.915 265.623 524.995 265.695 522.973C265.767 520.95 265.069 518.976 263.744 517.447C262.418 515.919 260.562 514.949 258.55 514.734C256.538 514.519 254.519 515.075 252.9 516.289C259.317 511.155 271.527 513.889 280.322 522.682C289.522 531.882 292.111 544.834 285.979 550.967C279.847 557.1 266.894 554.509 257.694 545.31C248.89 536.518 246.158 524.305 251.3 517.889ZM225.691 570.689C234.491 561.894 246.7 559.16 253.116 564.298C251.497 563.083 249.479 562.527 247.466 562.741C245.454 562.955 243.597 563.924 242.271 565.453C240.944 566.982 240.247 568.956 240.318 570.979C240.39 573.001 241.225 574.922 242.656 576.353C244.087 577.784 246.008 578.619 248.03 578.691C250.053 578.762 252.027 578.065 253.556 576.738C255.085 575.412 256.054 573.555 256.268 571.543C256.482 569.53 255.926 567.512 254.711 565.893C259.229 571.537 257.653 581.657 251.219 590.003H216.707C216.676 583.7 219.98 576.392 225.686 570.686L225.691 570.689ZM356.514 606C354.549 621.189 347.535 635.277 336.6 646H217.4C206.477 635.268 199.466 621.185 197.487 606H356.514Z" fill="#BC6E44"/>
</svg>
