<svg width="779" height="907" viewBox="0 0 779 907" fill="none" xmlns="http://www.w3.org/2000/svg">
<path d="M619.537 284.143C699.938 414.628 788.38 529.454 778.196 630.58C768.012 731.706 659.202 818.478 550.927 866.105C442.653 913.732 335.451 922.213 229.321 878.501C123.727 834.788 19.2049 738.882 2.58853 626.013C-14.5638 513.144 56.1896 382.007 136.055 252.174C215.921 121.69 304.899 -7.49032 385.836 0.338766C466.238 8.82027 538.599 154.311 619.537 284.143Z" fill="#F0EEE8"/>
<path d="M473.421 733.99H559.947C579.849 733.966 595.976 717.863 596 697.993V582.802C596.027 552.009 588.285 521.706 573.489 494.689C559.891 469.77 552.757 441.849 552.737 413.472V386.006C562.788 381.261 568.532 370.496 566.87 359.52C565.208 348.544 556.533 339.956 545.526 338.39V316.424C545.526 308.472 539.07 302.025 531.105 302.025H502.263C494.298 302.025 487.842 308.472 487.842 316.424V338.382C476.833 339.943 468.154 348.531 466.492 359.508C464.829 370.485 470.577 381.251 480.631 385.992V413.472C480.619 427.612 478.853 441.695 475.375 455.402C471.871 469.091 466.666 482.29 459.879 494.689C445.132 521.725 437.393 552.016 437.368 582.802V697.993C437.392 717.863 453.519 733.966 473.421 733.99ZM559.947 719.591H473.421C461.474 719.591 451.789 709.921 451.789 697.993V676.395H581.579V697.993C581.579 709.921 571.894 719.591 559.947 719.591ZM451.789 590.002H581.579V661.996H451.789V590.002ZM502.263 316.424H531.105V338.022H502.263V316.424ZM472.541 501.586C479.903 488.121 485.552 473.792 489.356 458.929C493.124 444.069 495.038 428.801 495.052 413.472V388.418H502.263C506.245 388.418 509.473 385.195 509.473 381.219C509.473 377.243 506.245 374.019 502.263 374.019H489.817C489.63 373.962 489.471 373.847 489.269 373.803C483.821 372.699 480.099 367.65 480.661 362.128C481.224 356.605 485.888 352.408 491.447 352.421H541.921C547.477 352.416 552.134 356.615 552.693 362.135C553.251 367.655 549.53 372.699 544.084 373.803C543.882 373.847 543.731 373.962 543.536 374.019H531.105C527.123 374.019 523.894 377.243 523.894 381.219C523.894 385.195 527.123 388.418 531.105 388.418H538.316V413.472C538.341 444.258 546.079 474.549 560.827 501.586C567.612 513.983 572.818 527.178 576.322 540.866C579.184 552.243 580.875 563.883 581.37 575.603H452.013C453.115 549.691 460.137 524.373 472.541 501.586Z" fill="#BC6E44"/>
<path d="M531.105 604.4H502.263C498.281 604.4 495.052 607.624 495.052 611.6C495.052 615.576 498.281 618.799 502.263 618.799H531.105C535.087 618.799 538.316 615.576 538.316 611.6C538.316 607.624 535.087 604.4 531.105 604.4Z" fill="#BC6E44"/>
<path d="M531.105 633.198H502.263C498.281 633.198 495.052 636.421 495.052 640.397C495.052 644.374 498.281 647.597 502.263 647.597H531.105C535.087 647.597 538.316 644.374 538.316 640.397C538.316 636.421 535.087 633.198 531.105 633.198Z" fill="#BC6E44"/>
<path d="M300.368 690.793C296.385 690.793 293.157 687.57 293.157 683.594C293.157 679.618 289.929 676.395 285.946 676.395C281.964 676.395 278.736 679.618 278.736 683.594C278.736 695.522 288.421 705.192 300.368 705.192C304.35 705.192 307.578 701.969 307.578 697.993C307.578 694.017 304.35 690.793 300.368 690.793Z" fill="#BC6E44"/>
<path d="M300.368 582.802C296.385 582.802 293.157 579.579 293.157 575.603C293.157 571.627 289.929 568.403 285.946 568.403C281.964 568.403 278.736 571.627 278.736 575.603C278.736 587.531 288.421 597.201 300.368 597.201C304.35 597.201 307.578 593.978 307.578 590.002C307.578 586.026 304.35 582.802 300.368 582.802Z" fill="#BC6E44"/>
<path d="M201.677 351.924L202.528 352.076C211.123 353.688 220.475 355.157 230.339 356.431C245.993 362.479 258.907 379.909 265.872 404.458C271.453 424.946 274.562 446.027 275.131 467.252C270.006 470.23 265.449 474.088 261.669 478.648C240.585 465.736 213.23 470.027 197.129 488.774C181.028 507.521 180.951 535.169 196.947 554.005C187.565 565.004 183.404 579.518 185.537 593.808C187.669 608.099 195.886 620.77 208.073 628.562C207.117 632.435 206.632 636.409 206.63 640.397C206.674 665.614 225.363 686.924 250.391 690.297C253.723 715.313 275.092 734 300.368 734C325.643 734 347.012 715.313 350.344 690.297C364.53 688.46 377.26 680.671 385.34 668.885C393.419 657.098 396.083 642.431 392.663 628.562C404.847 620.769 413.062 608.097 415.195 593.808C417.327 579.518 413.168 565.005 403.788 554.005C419.802 535.173 419.735 507.514 403.63 488.76C387.524 470.007 360.157 465.72 339.074 478.648C335.29 474.086 330.731 470.226 325.604 467.245C325.189 447.891 323.364 428.594 320.146 409.505L319.49 406.086V405.978C316.673 390.805 312.025 376.03 305.646 361.975C337.678 362.851 369.679 359.334 400.753 351.521C407.216 349.767 412.714 345.517 416.032 339.708C419.351 333.9 420.217 327.011 418.44 320.564C416.685 314.11 412.428 308.619 406.61 305.305C400.792 301.991 393.892 301.127 387.435 302.904C337.307 316.532 273.371 311.219 239.72 306.835H239.366C226.099 305.143 216.444 303.465 211.851 302.572L211.57 302.522C198.08 300.177 185.179 309 182.494 322.406C179.81 335.812 188.321 348.91 201.677 351.924ZM327.933 487.77C319.499 497.03 314.814 509.09 314.789 521.607C314.793 523.552 314.914 525.494 315.149 527.424C305.517 524.468 295.218 524.468 285.586 527.424C285.821 525.494 285.942 523.552 285.946 521.607C285.924 509.089 281.235 497.027 272.794 487.77C279.599 479.577 289.704 474.836 300.364 474.836C311.024 474.836 321.129 479.577 327.933 487.77ZM300.368 611.6C285.786 611.6 272.639 602.829 267.059 589.378C261.479 575.927 264.563 560.444 274.874 550.149C285.185 539.854 300.692 536.774 314.164 542.346C327.636 547.918 336.42 561.043 336.42 575.603C336.396 595.474 320.269 611.576 300.368 611.6ZM235.473 485.61C243.965 485.647 252.18 488.63 258.712 494.048C266.829 500.91 271.514 510.988 271.525 521.607C271.501 526.965 270.269 532.248 267.92 537.064C265.641 538.979 263.533 541.086 261.618 543.364C244.984 533.179 223.933 533.598 207.719 544.437C198.805 533.717 196.909 518.814 202.856 506.209C208.803 493.604 221.518 485.574 235.473 485.61ZM199.42 586.402C199.439 576.07 203.904 566.245 211.678 559.426C223.604 549.387 240.547 547.874 254.069 555.639C249.296 566.623 248.613 578.948 252.143 590.39C236.165 591.996 221.9 601.08 213.704 614.868C204.76 608.121 199.478 597.595 199.42 586.402ZM221.052 640.397C221.038 636.055 221.835 631.748 223.402 627.698C228.947 613.005 243.425 603.626 259.123 604.559C266.365 614.835 277.183 622.045 289.465 624.782C290.907 627.653 291.929 630.715 292.501 633.875C270.925 637.297 254.002 654.19 250.572 675.732C233.492 672.59 221.084 657.737 221.052 640.397ZM300.368 719.591C280.456 719.591 264.315 703.475 264.315 683.594C264.315 663.713 280.456 647.597 300.368 647.597C320.279 647.597 336.42 663.713 336.42 683.594C336.396 703.465 320.269 719.567 300.368 719.591ZM350.164 675.732C346.733 654.19 329.81 637.297 308.234 633.875C308.806 630.715 309.828 627.653 311.27 624.782C323.553 622.045 334.373 614.831 341.612 604.552C357.334 603.635 371.823 613.043 377.362 627.763C378.911 631.795 379.699 636.079 379.684 640.397C379.652 657.737 367.243 672.59 350.164 675.732ZM387.053 614.876C378.852 601.092 364.589 592.01 348.613 590.398C352.141 578.966 351.463 566.652 346.703 555.675C360.202 547.893 377.137 549.39 389.057 559.419C397.176 566.499 401.665 576.857 401.276 587.613C400.887 598.369 395.662 608.377 387.053 614.854V614.876ZM401.315 521.607C401.293 529.948 398.361 538.02 393.023 544.437C376.817 533.587 355.761 533.179 339.146 543.393C337.226 541.104 335.11 538.986 332.822 537.064C330.471 532.248 329.237 526.965 329.21 521.607C329.215 511.017 333.875 500.963 341.958 494.106C348.501 488.656 356.742 485.652 365.262 485.61C385.164 485.634 401.291 501.737 401.315 521.607ZM196.031 325.107C196.596 322.293 198.259 319.819 200.654 318.232C203.048 316.645 205.977 316.075 208.794 316.647C208.923 316.647 209.06 316.698 209.197 316.712C213.992 317.619 224.087 319.398 237.852 321.111H238.148C272.931 325.618 338.814 331.017 391.3 316.791C395.078 315.61 399.201 316.584 402.048 319.331C404.895 322.078 406.012 326.158 404.959 329.969C403.906 333.78 400.851 336.712 396.996 337.612C363.121 345.886 328.213 349.155 293.388 347.317C290.673 347.16 288.117 348.605 286.855 351.01C285.542 353.364 285.657 356.254 287.151 358.497C296.286 373.982 302.45 391.031 305.328 408.771L305.963 412.111C308.688 428.504 310.374 445.053 311.01 461.658C303.895 459.978 296.483 460.002 289.379 461.73C288.468 441.02 285.237 420.476 279.745 400.484C274.849 383.206 262.44 352.745 234.557 342.63C234.057 342.451 233.54 342.326 233.014 342.256C223.121 340.996 213.762 339.534 205.203 337.936L204.511 337.806C198.659 336.634 194.864 330.951 196.031 325.107Z" fill="#BC6E44"/>
</svg>
